<?xml version="1.0" encoding="iso-8859-1"?>
<!-- Generator: Adobe Illustrator 17.1.0, SVG Export Plug-In . SVG Version: 6.00 Build 0)  -->
<!DOCTYPE svg PUBLIC "-//W3C//DTD SVG 1.1//EN" "http://www.w3.org/Graphics/SVG/1.1/DTD/svg11.dtd">
<svg version="1.1" id="Layer_1" xmlns="http://www.w3.org/2000/svg" xmlns:xlink="http://www.w3.org/1999/xlink" x="0px" y="0px"
	 viewBox="0 0 265 300" style="enable-background:new 0 0 265 300;" xml:space="preserve">
<g>
	<g>
		<path style="fill:#146BBA;" d="M150.644,127.011h-36.289c-3.278,0-6.237-1.226-8.552-3.544c-2.321-2.318-3.544-5.274-3.544-8.552
			V12.096c0-3.278,1.223-6.234,3.544-8.552C108.118,1.226,111.078,0,114.356,0h36.289c3.278,0,6.237,1.226,8.552,3.544
			c2.321,2.318,3.544,5.274,3.544,8.552v102.818c0,3.278-1.223,6.234-3.544,8.552C156.882,125.785,153.922,127.011,150.644,127.011z
			 M114.356,12.096v102.818l36.366-0.003l-0.077-102.815H114.356z"/>
	</g>
	<g>
		<path style="fill:#146BBA;" d="M132.5,300C59.438,300,0,240.562,0,167.5S59.438,34.997,132.5,34.997S265,94.438,265,167.5
			S205.562,300,132.5,300z"/>
	</g>
</g>
</svg>
