<?xml version="1.0" encoding="iso-8859-1"?>
<!-- Generator: Adobe Illustrator 27.0.1, SVG Export Plug-In . SVG Version: 6.00 Build 0)  -->
<svg version="1.1" id="Layer_1" xmlns="http://www.w3.org/2000/svg" xmlns:xlink="http://www.w3.org/1999/xlink" x="0px" y="0px"
	 viewBox="0 0 265 300" style="enable-background:new 0 0 265 300;" xml:space="preserve">
<pattern  x="-2746.906" y="760.199" width="41.897" height="41.897" patternUnits="userSpaceOnUse" id="pattern" viewBox="8.696 -41.897 41.897 41.897" style="overflow:visible;">
	<g>
		<rect x="8.696" y="-41.897" style="fill:none;" width="41.897" height="41.897"/>
		
			<image style="overflow:visible;enable-background:new    ;" width="1181" height="978" xlink:href="FAC050F5F4AF124B.jpg"  transform="matrix(0.0428 0 0 -0.0428 0 0)">
		</image>
	</g>
</pattern>
<g>
	<g>
		<path style="fill:#146BBA;" d="M150.644,127.011h-36.289c-3.278,0-6.237-1.226-8.552-3.544c-2.321-2.318-3.544-5.274-3.544-8.552
			V12.096c0-3.278,1.223-6.234,3.544-8.552C108.118,1.226,111.078,0,114.356,0h36.289c3.278,0,6.237,1.226,8.552,3.544
			c2.321,2.318,3.544,5.274,3.544,8.552v102.818c0,3.278-1.223,6.234-3.544,8.552C156.882,125.785,153.922,127.011,150.644,127.011z
			 M114.356,12.096v102.818l36.366-0.003l-0.077-102.815H114.356z"/>
	</g>
	<g>
		<defs>
			<circle id="SVGID_1_" cx="132.5" cy="167.499" r="126.699"/>
		</defs>
		<clipPath id="SVGID_00000088107521342715785370000008263364759796212619_">
			<use xlink:href="#SVGID_1_"  style="overflow:visible;"/>
		</clipPath>
	</g>
	<g>
		<path style="fill:#146BBA;" d="M132.5,300C59.438,300,0,240.563,0,167.501S59.438,35,132.5,35S265,94.44,265,167.501
			S205.562,300,132.5,300z M132.5,47.074c-66.4,0-120.426,54.022-120.426,120.428c0,66.403,54.026,120.425,120.426,120.425
			s120.426-54.022,120.426-120.425C252.926,101.096,198.9,47.074,132.5,47.074z"/>
	</g>
</g>
<g id="Group_57" transform="translate(1.091 1.091)">
	
		<pattern  id="_798739cd29a5d45fc13e9077dc41ef33_00000180367762155219319980000010303806937691880356_" xlink:href="#pattern" patternTransform="matrix(6.0096 0 0 -6.0103 22990.9414 -60795.6758)">
	</pattern>
	
		<path id="_798739cd29a5d45fc13e9077dc41ef33" style="fill:url(#_798739cd29a5d45fc13e9077dc41ef33_00000180367762155219319980000010303806937691880356_);stroke:#146BBA;stroke-width:2;" d="
		M131.358,292.273c69.528,0,125.892-56.37,125.892-125.906S200.886,40.461,131.358,40.461c-69.526,0-125.889,56.366-125.892,125.9
		C5.476,235.894,61.833,292.259,131.358,292.273z"/>
	<g id="Group_152" transform="translate(-43.172 -15.262)">
		<path id="Path_78" style="fill:#146BBA;" d="M42.081,181.671c0.006,73.184,59.332,132.506,132.508,132.5
			c73.167-0.006,132.48-59.325,132.486-132.5H42.081z"/>
		<path id="Path_79" style="fill:#FFD600;" d="M307.081,181.671c-0.006-73.184-59.332-132.506-132.508-132.5
			c-73.167,0.006-132.48,59.325-132.486,132.5H307.081z"/>
		<path id="Path_80" style="fill:#FFFFFF;" d="M244.327,195.549c17.344-17.351,17.34-45.478-0.009-62.824
			c-17.349-17.346-45.473-17.342-62.817,0.009l0,0l-6.917,6.918l-6.923-6.918c-17.389-17.3-45.51-17.226-62.808,0.165
			c-17.234,17.327-17.234,45.323,0,62.65l69.713,69.721L244.327,195.549z"/>
	</g>
</g>
</svg>
