<?xml version="1.0" standalone="no"?>
<!DOCTYPE svg PUBLIC "-//W3C//DTD SVG 20010904//EN"
 "http://www.w3.org/TR/2001/REC-SVG-20010904/DTD/svg10.dtd">
<svg version="1.0" xmlns="http://www.w3.org/2000/svg"
 width="1024.000000pt" height="1024.000000pt" viewBox="0 0 1024.000000 1024.000000"
 preserveAspectRatio="xMidYMid meet">
<metadata>
Created by potrace 1.14, written by Peter Selinger 2001-2017
</metadata>
<g transform="translate(0.000000,1024.000000) scale(0.100000,-0.100000)"
fill="#000000" stroke="none">
<path d="M5127 10234 c-1 -1 -87 -4 -192 -8 -104 -3 -203 -8 -220 -11 -16 -2
-59 -7 -95 -10 -79 -7 -125 -12 -165 -19 -16 -3 -55 -8 -85 -11 -30 -4 -57 -8
-60 -10 -3 -2 -28 -6 -56 -10 -27 -3 -57 -8 -67 -11 -11 -3 -29 -7 -40 -9 -29
-3 -171 -33 -188 -40 -8 -2 -26 -6 -41 -9 -87 -14 -576 -169 -639 -202 -15 -7
-29 -10 -33 -7 -3 4 -6 1 -6 -5 0 -7 -7 -12 -15 -12 -20 0 -165 -64 -350 -155
-173 -84 -255 -129 -415 -229 -63 -39 -123 -75 -132 -81 -9 -5 -45 -30 -80
-54 -35 -24 -76 -54 -93 -65 -16 -12 -32 -23 -35 -26 -3 -3 -35 -28 -72 -55
-38 -27 -68 -52 -68 -57 0 -4 -5 -8 -11 -8 -5 0 -24 -13 -42 -30 -18 -16 -35
-30 -38 -30 -3 0 -19 -12 -36 -27 -16 -16 -56 -50 -88 -78 -72 -62 -393 -382
-457 -456 -87 -101 -106 -124 -150 -179 -138 -172 -368 -504 -368 -530 0 -5
-4 -10 -8 -10 -5 0 -17 -18 -27 -40 -10 -22 -21 -40 -24 -40 -3 0 -12 -15 -20
-32 -8 -18 -24 -49 -36 -68 -25 -40 -127 -240 -178 -350 -74 -160 -141 -332
-204 -525 -14 -44 -29 -89 -33 -100 -4 -11 -13 -38 -18 -60 -6 -22 -20 -71
-31 -110 -16 -59 -30 -115 -33 -135 -1 -3 -5 -21 -10 -40 -14 -58 -37 -168
-43 -202 -3 -18 -8 -40 -10 -48 -2 -8 -7 -35 -10 -59 -3 -23 -8 -57 -10 -75
-12 -67 -14 -83 -20 -136 -3 -30 -8 -66 -10 -80 -10 -67 -26 -318 -29 -472
l-2 -88 2553 0 c1404 -1 3689 -1 5078 -1 1389 0 2534 0 2546 1 21 0 21 1 16
258 -3 141 -8 271 -10 287 -3 17 -8 53 -11 80 -3 28 -8 61 -11 74 -2 14 -7 45
-10 70 -5 45 -9 68 -20 121 -3 14 -8 40 -11 59 -3 18 -7 41 -9 50 -80 388
-200 753 -359 1095 -25 54 -46 104 -46 112 0 7 -3 14 -7 16 -5 2 -24 35 -44
73 -62 122 -120 226 -187 335 -36 58 -72 117 -81 132 -9 16 -19 28 -23 28 -5
0 -8 5 -8 11 0 5 -33 56 -72 111 -40 55 -77 108 -83 116 -5 9 -22 30 -37 47
-16 16 -28 33 -28 36 0 3 -9 17 -21 30 -11 13 -33 39 -47 58 -37 46 -44 54
-197 229 -85 97 -337 340 -454 439 -19 15 -41 35 -50 43 -9 8 -39 33 -66 55
-28 22 -51 43 -53 47 -2 5 -8 8 -14 8 -5 0 -15 6 -22 13 -7 6 -25 21 -40 32
-16 11 -50 37 -76 58 -26 20 -52 37 -58 37 -6 0 -12 4 -14 8 -7 20 -404 272
-428 272 -5 0 -10 5 -10 10 0 6 -6 10 -14 10 -8 0 -21 7 -30 15 -8 9 -17 15
-18 14 -3 -2 -41 17 -178 88 -47 25 -86 45 -87 44 -2 0 -57 24 -168 73 -27 12
-66 28 -85 36 -19 7 -39 17 -44 22 -6 4 -20 8 -33 8 -13 0 -23 5 -23 10 0 6
-3 9 -7 8 -7 -3 -113 33 -158 53 -28 12 -245 77 -335 100 -41 11 -82 22 -90
24 -48 13 -240 54 -325 69 -16 3 -41 8 -55 11 -14 3 -43 7 -65 10 -22 2 -60 8
-85 11 -25 4 -54 8 -65 9 -25 2 -149 16 -190 21 -26 3 -102 6 -393 17 -24 1
-44 1 -45 1z"/>
<path d="M37 5083 c-7 -14 6 -342 18 -441 2 -20 7 -70 10 -110 4 -41 9 -83 11
-95 3 -12 7 -42 9 -67 3 -25 9 -67 15 -95 5 -27 11 -66 14 -86 3 -20 7 -42 10
-50 3 -8 7 -32 10 -54 2 -22 7 -47 10 -55 3 -8 8 -26 10 -40 3 -14 8 -36 11
-50 7 -29 13 -57 19 -85 4 -23 28 -107 58 -210 34 -118 105 -326 137 -405 17
-41 31 -81 31 -87 0 -7 5 -13 12 -13 6 0 9 -3 6 -6 -6 -5 6 -36 64 -164 57
-127 184 -369 246 -470 12 -19 25 -42 28 -50 14 -30 238 -363 267 -396 16 -19
26 -34 23 -34 -3 0 5 -12 19 -27 13 -16 55 -66 92 -113 37 -47 72 -90 78 -96
5 -6 35 -40 65 -75 106 -123 373 -385 520 -509 14 -12 36 -31 50 -43 88 -78
430 -327 449 -327 5 0 11 -4 13 -8 2 -5 48 -36 103 -70 55 -34 106 -66 113
-72 6 -6 12 -9 12 -6 0 3 33 -14 73 -38 94 -56 326 -171 452 -225 55 -23 109
-46 120 -51 11 -5 58 -23 105 -40 47 -17 94 -34 105 -39 72 -33 535 -166 535
-154 0 3 7 0 15 -7 8 -7 15 -10 15 -7 0 3 26 -1 58 -8 69 -16 81 -19 231 -45
62 -11 138 -23 169 -26 30 -3 65 -8 76 -10 71 -14 232 -19 621 -19 396 0 488
3 605 19 19 3 57 8 84 11 27 3 59 7 70 10 12 2 39 7 61 10 84 12 335 66 460
100 72 20 137 37 145 39 141 39 451 153 625 231 125 56 252 119 268 133 9 8
17 12 17 7 0 -4 6 -3 13 2 6 6 39 25 72 43 85 47 89 49 200 115 55 32 106 65
113 72 7 7 19 13 27 13 7 0 15 4 17 8 2 5 39 33 83 62 44 30 85 58 90 62 14
11 117 88 151 113 26 19 60 46 149 120 44 36 50 41 150 130 123 108 435 428
435 446 0 4 6 12 13 16 6 4 38 40 70 78 80 96 77 92 143 181 32 44 62 81 65
84 12 10 173 252 234 352 265 435 497 996 599 1448 4 14 13 54 21 90 8 36 17
81 21 100 3 19 7 41 10 49 2 8 7 30 10 50 3 20 9 59 14 86 5 28 11 70 14 95
12 93 18 136 23 160 3 14 7 143 10 288 l5 262 -5095 0 c-2803 0 -5098 -3
-5100 -7z"/>
</g>
</svg>
