<?xml version="1.0" encoding="utf-8"?>
<!-- Generator: Adobe Illustrator 27.0.1, SVG Export Plug-In . SVG Version: 6.00 Build 0)  -->
<svg version="1.1" id="Layer_1" xmlns="http://www.w3.org/2000/svg" xmlns:xlink="http://www.w3.org/1999/xlink" x="0px" y="0px"
	 viewBox="0 0 287.1 111.4" style="enable-background:new 0 0 287.1 111.4;" xml:space="preserve">
<style type="text/css">
	.st0{fill:#ECF0F6;}
	.st1{fill:#ECF0F6;stroke:#046ABA;stroke-width:2;stroke-linecap:round;stroke-linejoin:round;}
</style>
<path class="st0" d="M35.9,89.4c0,11.6,9.4,21,21,21s21-9.4,21-21c0-11.6-9.4-21-21-21c0,0,0,0,0,0C45.4,68.3,35.9,77.8,35.9,89.4
	C35.9,89.4,35.9,89.4,35.9,89.4z"/>
<path id="Path_71" class="st1" d="M36,94.1c-19.9,0.1-32.9,0.2-32.9,0.2S-7,59.5,17.5,48c10.4-3.6,33.7-9.9,42-14
	c10.5-5.2,37-27.3,50.5-28.9c37.9-6.5,103.6-4.5,117,1.2c10.3,4.4,19.8,22.6,20.9,37.4c0.3,3.6,5.5,7.2,5.9,11
	c0.8,8.4,0.1,38.4-10.5,38.4c-0.5,0-6,0-15.1,0.1 M186.8,93.3c-32.6,0.2-74.1,0.4-109.4,0.6 M35.9,89.4c0,11.6,9.4,21,21,21
	s21-9.4,21-21c0-11.6-9.4-21-21-21c0,0,0,0,0,0C45.4,68.3,35.9,77.8,35.9,89.4C35.9,89.4,35.9,89.4,35.9,89.4z M186.4,89.4
	c0,11.6,9.4,21,21,21c11.6,0,21-9.4,21-21s-9.4-21-21-21l0,0C195.8,68.4,186.4,77.8,186.4,89.4L186.4,89.4z M212.4,13.4
	c12.7,3.5,7.2,31.5,7.2,31.5L165.9,45c0,0,1.8-33.5,1.8-34.4C186.1,10.4,204.3,11.2,212.4,13.4z M155.4,44.9l-87.8,0.2
	c0,0,31.2-27.7,47.6-31.2c7.2-1.6,19.6-3.2,42-3.4L155.4,44.9z M151.7,60c0,2-1.8,3.9-5.2,3.9h-8c-2.3,0-5.1-1.3-5.1-3.9 M9,54.2
	c1.1,0,4.1-0.1,12.7,0c1.4,0,2.5,1.2,2.5,2.6c0,0.6-0.2,1.1-0.6,1.5c-3.3,4.1-10.1,7-13.6,7.8c-2.4,0.6-4.9,1-7.4,1.3 M264.5,110.1
	h21.6V25.3h-21.6V110.1z M262.5,37.2c-8.5,0-15.8-1.1-19.8,16.1c-1.7,7.2-7.4,6.9-10.9,6.9"/>
</svg>
