<?xml version="1.0" encoding="iso-8859-1"?>
<!-- Generator: Adobe Illustrator 17.1.0, SVG Export Plug-In . SVG Version: 6.00 Build 0)  -->
<!DOCTYPE svg PUBLIC "-//W3C//DTD SVG 1.1//EN" "http://www.w3.org/Graphics/SVG/1.1/DTD/svg11.dtd">
<svg version="1.1" id="Layer_1" xmlns="http://www.w3.org/2000/svg" xmlns:xlink="http://www.w3.org/1999/xlink" x="0px" y="0px"
	 viewBox="0.333 132.626 1280 434.068" style="enable-background:new 0.333 132.626 1280 434.068;" xml:space="preserve">
<g>
	<g>
		<g>
			<defs>
				<rect id="SVGID_1_" x="103.979" y="132.626" width="201.281" height="433.444"/>
			</defs>
			<clipPath id="SVGID_2_">
				<use xlink:href="#SVGID_1_"  style="overflow:visible;"/>
			</clipPath>
			<g style="clip-path:url(#SVGID_2_);">
				<g style="enable-background:new    ;">
					<g>
						<defs>
							<rect id="SVGID_3_" x="103.833" y="132.5" width="201.5" height="433.667"/>
						</defs>
						<clipPath id="SVGID_4_">
							<use xlink:href="#SVGID_3_"  style="overflow:visible;"/>
						</clipPath>
						<g style="clip-path:url(#SVGID_4_);">
							<path style="fill:#046ABA;" d="M278.849,566.508H104.543c-0.552,0-1-0.447-1-1V190.322c0-0.552,0.448-1,1-1h35.156v-56.132
								c0-0.552,0.448-1,1-1h138.149c0.552,0,1,0.448,1,1v431.174c0,0.213-0.066,0.41-0.18,0.572c0.113,0.162,0.18,0.359,0.18,0.572
								C279.849,566.061,279.401,566.508,278.849,566.508z M168.683,564.508h109.176c-0.007-0.047-0.01-0.096-0.01-0.145V134.189
								H141.699v56.132c0,0.552-0.448,1-1,1h-35.156v373.186h26.063v-53.194c0-0.553,0.448-1,1-1h17.215
								c0.029-0.002,0.059-0.002,0.088,0h17.773c0.552,0,1,0.447,1,1V564.508z M150.865,564.508h15.817v-52.194h-15.817V564.508z
								 M133.606,564.508h15.259v-52.194h-15.259V564.508z M262.656,432.52H122.349c-0.552,0-1-0.447-1-1v-30.469
								c0-0.553,0.448-1,1-1h140.307c0.552,0,1,0.447,1,1v30.469C263.656,432.072,263.208,432.52,262.656,432.52z M123.349,430.52
								h138.307v-28.469H123.349V430.52z M262.656,370.956H122.349c-0.552,0-1-0.448-1-1v-30.469c0-0.552,0.448-1,1-1h140.307
								c0.552,0,1,0.448,1,1v30.469C263.656,370.508,263.208,370.956,262.656,370.956z M123.349,368.956h138.307v-28.469H123.349
								V368.956z M262.656,309.388H122.349c-0.552,0-1-0.448-1-1V277.92c0-0.552,0.448-1,1-1h140.307c0.552,0,1,0.448,1,1v30.468
								C263.656,308.94,263.208,309.388,262.656,309.388z M123.349,307.388h138.307V278.92H123.349V307.388z M262.656,247.821
								H122.349c-0.552,0-1-0.448-1-1v-30.469c0-0.552,0.448-1,1-1h140.307c0.552,0,1,0.448,1,1v30.469
								C263.656,247.373,263.208,247.821,262.656,247.821z M123.349,245.821h138.307v-28.469H123.349V245.821z"/>
						</g>
					</g>
				</g>
			</g>
			<g style="clip-path:url(#SVGID_2_);">
				<path style="fill:#046ABA;" d="M261.879,492.326H121.572c-0.552,0-1-0.447-1-1v-30.469c0-0.553,0.448-1,1-1h140.307
					c0.552,0,1,0.447,1,1v30.469C262.879,491.879,262.431,492.326,261.879,492.326z M122.572,490.326h138.307v-28.469H122.572
					V490.326z"/>
			</g>
			<g style="clip-path:url(#SVGID_2_);">
				<path style="fill:#046ABA;" d="M261.879,186.602H160.092c-0.552,0-1-0.448-1-1v-30.469c0-0.552,0.448-1,1-1h101.787
					c0.552,0,1,0.448,1,1v30.469C262.879,186.154,262.431,186.602,261.879,186.602z M161.092,184.602h99.787v-28.469h-99.787
					V184.602z"/>
			</g>
		</g>
		<g>
			<path style="fill:#ECF0F6;" d="M404.913,516.65c-5.684,0-10.506-0.735-13.18,10.75c-1.117,4.805-4.907,4.595-7.248,4.595
				 M406.274,565.235h14.393v-56.561h-14.393V565.235z M235.944,527.957c0.729-0.003,2.753-0.072,8.495-0.007
				c1.405,0.017,2.145,1.694,1.255,2.784c-2.213,2.708-6.705,4.65-9.042,5.224c-1.56,0.381-3.213,0.667-4.956,0.856
				 M331.075,531.806c0,1.303-1.22,2.605-3.471,2.605h-5.365c-1.512,0-3.406-0.877-3.406-2.605 M333.515,521.791l-58.558,0.131
				c0,0,20.823-18.435,31.748-20.823c4.818-1.051,13.07-2.141,28.023-2.271L333.515,521.791z M371.553,500.786
				c8.437,2.354,4.822,21.005,4.822,21.005l-35.838,0.072c0,0,1.206-22.363,1.206-22.964
				C354.025,498.793,366.15,499.281,371.553,500.786z M354.204,551.409c0,7.739,6.275,14.011,14.011,14.011
				c7.739,0,14.011-6.272,14.011-14.011c0-7.739-6.272-14.011-14.011-14.011C360.479,537.397,354.204,543.669,354.204,551.409z
				 M253.904,551.409c0,7.739,6.272,14.011,14.008,14.011c7.739,0,14.011-6.272,14.011-14.011c0-7.739-6.272-14.011-14.011-14.011
				C260.176,537.397,253.904,543.669,253.904,551.409z M354.455,554.031c-21.761,0.113-49.406,0.258-72.92,0.385 M253.921,554.56
				c-13.273,0.069-21.916,0.117-21.916,0.117s-6.757-23.163,9.575-30.855c6.915-2.399,22.455-6.605,27.968-9.334
				c7.007-3.471,24.634-18.221,33.697-19.283c25.256-4.313,69.071-3.007,78.01,0.787c6.853,2.911,13.187,15.063,13.912,24.906
				c0.175,2.416,3.667,4.791,3.907,7.361c0.526,5.588,0.062,25.579-7.028,25.579c-0.357,0-4.028,0.021-10.042,0.051
				 M253.904,551.409c0,7.739,6.272,14.011,14.008,14.011c7.739,0,14.011-6.272,14.011-14.011c0-7.739-6.272-14.011-14.011-14.011
				C260.176,537.397,253.904,543.669,253.904,551.409z"/>
			<path style="fill:#046ABA;" d="M368.215,566.42c-7.027,0-12.942-4.854-14.568-11.386c-21.373,0.111-48.229,0.253-71.265,0.376
				c-1.756,6.342-7.578,11.01-14.47,11.01c-6.835,0-12.619-4.595-14.424-10.858l-21.478,0.115c-0.001,0-0.003,0-0.005,0
				c-0.444,0-0.835-0.293-0.96-0.72c-0.07-0.24-6.801-24.076,10.108-32.039c0.032-0.016,0.065-0.029,0.099-0.04
				c2.389-0.829,5.815-1.877,9.442-2.985c6.966-2.13,14.861-4.544,18.41-6.301c2.303-1.141,5.811-3.552,9.874-6.344
				c7.976-5.482,17.903-12.305,24.15-13.036c24.732-4.227,69.267-3.067,78.517,0.858c6.812,2.895,12.41,13.396,14.078,22.406
				c2.427-1.875,5.28-1.851,8.228-1.831l0.961,0.005c0.127,0,0.249,0.023,0.361,0.067v-7.044c0-0.553,0.448-1,1-1h14.393
				c0.552,0,1,0.447,1,1v56.561c0,0.553-0.448,1-1,1h-14.393c-0.552,0-1-0.447-1-1v-47.651c-0.112,0.044-0.234,0.067-0.361,0.067
				l-0.976-0.005c-3.153-0.018-5.767-0.042-7.86,2.229c0.035,0.319,0.063,0.636,0.086,0.949c0.066,0.903,0.9,2.001,1.707,3.063
				c1.008,1.327,2.051,2.699,2.199,4.279c0.44,4.681,0.23,19.901-4.33,24.91c-1.064,1.169-2.307,1.762-3.694,1.762
				c-0.228,0-1.809,0.009-4.489,0.022l-4.737,0.025C381.248,561.492,375.296,566.42,368.215,566.42z M355.452,553.941
				c1.182,5.967,6.456,10.479,12.764,10.479c6.364,0,11.675-4.593,12.794-10.639c0.005-0.047,0.013-0.093,0.025-0.138
				c0.126-0.727,0.192-1.474,0.192-2.235c0-7.174-5.837-13.011-13.011-13.011s-13.011,5.837-13.011,13.011
				c0,0.798,0.072,1.578,0.21,2.337C355.433,553.809,355.446,553.874,355.452,553.941z M254.904,551.408
				c0,7.175,5.835,13.012,13.008,13.012c6.095,0,11.226-4.214,12.631-9.881c-0.005-0.039-0.008-0.079-0.008-0.119
				c-0.001-0.196,0.055-0.38,0.152-0.534c0.155-0.803,0.236-1.631,0.236-2.478c0-7.174-5.837-13.011-13.011-13.011
				C260.739,538.397,254.904,544.234,254.904,551.408z M407.274,564.234h12.393v-54.561h-12.393V564.234z M232.256,537.757
				c-1.412,6.77-0.01,13.702,0.523,15.916l20.279-0.108c-0.102-0.705-0.154-1.424-0.154-2.156c0-8.277,6.733-15.011,15.008-15.011
				c8.277,0,15.011,6.733,15.011,15.011c0,0.678-0.045,1.346-0.133,2c22.819-0.122,49.314-0.262,70.501-0.372
				c-0.058-0.535-0.088-1.078-0.088-1.628c0-8.277,6.734-15.011,15.011-15.011s15.011,6.733,15.011,15.011
				c0,0.498-0.024,0.99-0.072,1.476l4.392-0.023c2.686-0.014,4.271-0.022,4.499-0.022c0.812,0,1.537-0.362,2.215-1.108
				c3.832-4.209,4.283-18.429,3.817-23.377c-0.095-1.011-0.962-2.152-1.8-3.255c-0.688-0.905-1.392-1.832-1.791-2.818
				c-0.664,1.353-1.257,3.098-1.781,5.348c-1.253,5.393-5.613,5.37-7.943,5.369l-0.279-0.001c-0.552,0-1-0.447-1-1s0.448-1,1-1
				l0.286,0.001c2.898,0.022,5.162-0.266,5.988-3.822c0.858-3.687,1.958-6.198,3.232-7.908c-1.273-9.512-7.25-19.857-13.127-22.354
				c-9.041-3.837-52.928-4.909-77.451-0.721c-5.808,0.682-15.508,7.349-23.303,12.706c-4.125,2.835-7.688,5.283-10.119,6.488
				c-3.695,1.828-11.673,4.268-18.712,6.42c-3.583,1.096-6.969,2.131-9.321,2.945c-1.315,0.623-2.471,1.356-3.485,2.177
				c1.315-0.009,3.217-0.009,5.978,0.023c1.025,0.013,1.933,0.603,2.371,1.54c0.448,0.959,0.313,2.061-0.353,2.876
				c-2.392,2.926-7.144,4.965-9.578,5.563C235.433,537.286,233.876,537.563,232.256,537.757z M236.384,528.951
				c-1.726,2.004-2.867,4.319-3.597,6.721c1.264-0.175,2.479-0.404,3.627-0.686c2.344-0.575,6.533-2.472,8.505-4.885
				c0.264-0.323,0.135-0.667,0.09-0.766c-0.054-0.114-0.217-0.381-0.583-0.386c-4.679-0.055-6.87-0.018-7.922-0.001L236.384,528.951
				z M327.604,535.411h-5.365c-2.166,0-4.406-1.349-4.406-3.605c0-0.553,0.448-1,1-1s1,0.447,1,1c0,1.048,1.397,1.605,2.406,1.605
				h5.365c1.623,0,2.471-0.808,2.471-1.605c0-0.553,0.448-1,1-1s1,0.447,1,1C332.075,533.554,330.508,535.411,327.604,535.411z
				 M274.958,522.922c-0.415,0-0.787-0.257-0.935-0.645c-0.148-0.389-0.04-0.828,0.271-1.104c0.858-0.76,21.145-18.635,32.198-21.05
				c6.487-1.417,15.984-2.188,28.227-2.295c0.291-0.035,0.54,0.108,0.731,0.309c0.19,0.199,0.291,0.469,0.276,0.744l-1.213,22.963
				c-0.028,0.53-0.465,0.946-0.996,0.947l-58.558,0.131C274.959,522.922,274.958,522.922,274.958,522.922z M333.673,499.839
				c-11.592,0.14-20.589,0.892-26.754,2.237c-8.581,1.876-23.774,14.206-29.256,18.84l54.904-0.123L333.673,499.839z
				 M340.537,522.863c-0.274,0-0.537-0.112-0.725-0.312c-0.189-0.199-0.288-0.468-0.273-0.742
				c0.333-6.162,1.197-22.292,1.205-22.914c0.007-0.544,0.447-0.991,0.991-0.996c8.404-0.075,23.474,0.081,30.087,1.924l0,0
				c9.22,2.571,5.69,21.359,5.535,22.158c-0.091,0.47-0.502,0.809-0.98,0.81l-35.838,0.072
				C340.538,522.863,340.537,522.863,340.537,522.863z M342.7,499.893c-0.182,3.739-0.885,16.826-1.107,20.969l33.945-0.068
				c0.904-5.431,1.62-17.405-4.253-19.044C366.732,500.48,356.333,499.806,342.7,499.893z"/>
		</g>
		<g>
			<path style="fill:#046ABA;" d="M1129.827,566.024c-0.546,0-0.992-0.438-1-0.985l-4.036-270.992h-8.133l-3.147,270.767
				c-0.008,0.551-0.489,1.009-1.012,0.988c-0.552-0.007-0.995-0.459-0.988-1.012l3.159-271.755c0.007-0.548,0.452-0.988,1-0.988
				h10.106c0.547,0,0.992,0.438,1,0.985l4.051,271.978c0.008,0.552-0.433,1.006-0.985,1.015
				C1129.837,566.024,1129.832,566.024,1129.827,566.024z"/>
		</g>
		<g>
			<rect x="0.333" y="564.64" style="fill:#146BBA;" width="1280" height="2.055"/>
		</g>
		<g>
			<path style="fill:#046ABA;" d="M983.38,566.024c-0.546,0-0.992-0.438-1-0.985l-4.035-270.992h-8.133l-3.147,270.767
				c-0.007,0.548-0.453,0.988-1,0.988c-0.004,0-0.008,0-0.012,0c-0.552-0.007-0.995-0.459-0.988-1.012l3.159-271.755
				c0.007-0.548,0.452-0.988,1-0.988h10.106c0.547,0,0.992,0.438,1,0.985l4.05,271.977c0.008,0.552-0.433,1.006-0.985,1.015
				C983.39,566.024,983.385,566.024,983.38,566.024z"/>
		</g>
	</g>
</g>
</svg>
