<?xml version="1.0" encoding="iso-8859-1"?>
<!-- Generator: Adobe Illustrator 17.1.0, SVG Export Plug-In . SVG Version: 6.00 Build 0)  -->
<!DOCTYPE svg PUBLIC "-//W3C//DTD SVG 1.1//EN" "http://www.w3.org/Graphics/SVG/1.1/DTD/svg11.dtd">
<svg version="1.1" id="Layer_1" xmlns="http://www.w3.org/2000/svg" xmlns:xlink="http://www.w3.org/1999/xlink" x="0px" y="0px"
	 viewBox="3609.351 462.059 923.941 930.941" style="enable-background:new 3609.351 462.059 923.941 930.941;"
	 xml:space="preserve">
<circle style="fill:none;" cx="4071.322" cy="931.029" r="461.971"/>
<g>
	<g>
		<g>
			<path style="fill:#ECF0F6;" d="M4465.872,1168.533c-1.609,0-3.205-0.407-4.743-1.209l-407.665-212.587l29.653-51.361
				l387.938,246.754c3.833,2.438,5.508,6.766,4.268,11.026C4474.058,1165.5,4470.172,1168.533,4465.872,1168.533
				C4465.872,1168.533,4465.872,1168.533,4465.872,1168.533z"/>
			<path style="fill:#046ABA;" d="M4084.322,908.29l384.855,244.794c5.908,3.758,2.376,11.949-3.304,11.949
				c-0.989,0-2.044-0.249-3.125-0.812l-404.426-210.898L4084.322,908.29 M4081.913,898.461l-3.654,6.328l-26,45.033l-3.654,6.328
				l6.479,3.379l404.425,210.898c2.043,1.065,4.184,1.606,6.362,1.606c5.846,0,11.114-4.071,12.81-9.899
				c1.686-5.792-0.57-11.663-5.749-14.957l-384.855-244.794L4081.913,898.461L4081.913,898.461z"/>
		</g>
		<g>
			<path style="fill:#ECF0F6;" d="M4071.285,973.313c-7.419,0-14.755-1.971-21.214-5.7c-20.295-11.717-27.272-37.761-15.556-58.056
				c7.57-13.111,21.688-21.257,36.843-21.257c7.419,0,14.754,1.971,21.213,5.7c20.295,11.718,27.273,37.762,15.557,58.057
				C4100.558,965.168,4086.44,973.313,4071.285,973.313z"/>
			<path style="fill:#046ABA;" d="M4071.358,891.8c6.617,0,13.321,1.685,19.464,5.232c18.654,10.77,25.045,34.622,14.275,53.275
				c-7.223,12.511-20.333,19.507-33.812,19.507c-6.617,0-13.321-1.685-19.464-5.232c-18.653-10.77-25.044-34.622-14.275-53.275
				C4044.77,898.795,4057.88,891.8,4071.358,891.8 M4071.36,884.8h-0.002c-16.402,0.001-31.68,8.816-39.873,23.006
				c-12.682,21.966-5.129,50.155,16.837,62.837c6.991,4.036,14.931,6.169,22.964,6.169c16.402,0,31.681-8.816,39.874-23.006
				c6.144-10.641,7.776-23.037,4.596-34.906c-3.18-11.868-10.792-21.788-21.433-27.932
				C4087.331,886.933,4079.391,884.8,4071.36,884.8L4071.36,884.8z"/>
		</g>
	</g>
	<g>
		<g>
			<path style="fill:#ECF0F6;" d="M3676.771,1168.533c-4.299-0.001-8.185-3.035-9.449-7.379c-1.239-4.26,0.435-8.587,4.266-11.024
				l387.938-246.754l29.653,51.361l-407.664,212.587C3679.977,1168.126,3678.381,1168.533,3676.771,1168.533
				C3676.771,1168.533,3676.771,1168.533,3676.771,1168.533z"/>
			<path style="fill:#046ABA;" d="M4058.322,908.29l26,45.033l-404.425,210.898c-1.082,0.564-2.136,0.812-3.125,0.812
				c-5.68,0-9.212-8.192-3.304-11.949L4058.322,908.29 M4060.73,898.461l-6.166,3.922l-384.855,244.794
				c-5.178,3.294-7.435,9.164-5.749,14.956c1.697,5.829,6.964,9.9,12.81,9.9c2.178,0,4.319-0.54,6.362-1.606l404.425-210.897
				l6.479-3.379l-3.654-6.328l-26-45.033L4060.73,898.461L4060.73,898.461z"/>
		</g>
		<g>
			<path style="fill:#ECF0F6;" d="M4071.357,973.313c-15.155,0-29.271-8.145-36.842-21.256
				c-11.718-20.295-4.739-46.339,15.556-58.057c6.459-3.729,13.795-5.7,21.213-5.7c15.156,0,29.273,8.146,36.844,21.257
				c11.717,20.295,4.738,46.338-15.557,58.056C4086.112,971.342,4078.776,973.313,4071.357,973.313z"/>
			<path style="fill:#046ABA;" d="M4071.285,891.8c13.479-0.001,26.587,6.994,33.812,19.507
				c10.77,18.653,4.378,42.505-14.275,53.275c-6.141,3.546-12.848,5.232-19.464,5.232c-13.479,0-26.587-6.994-33.811-19.507
				c-10.77-18.653-4.378-42.505,14.275-53.275C4057.963,893.486,4064.669,891.8,4071.285,891.8 M4071.287,884.8v7V884.8h-0.002
				c-8.033,0-15.973,2.134-22.963,6.169c-21.966,12.682-29.519,40.871-16.837,62.837c8.193,14.191,23.472,23.006,39.874,23.006
				c8.032,0,15.973-2.133,22.964-6.169c10.641-6.143,18.253-16.063,21.433-27.931s1.548-24.265-4.596-34.906
				C4102.966,893.615,4087.688,884.8,4071.287,884.8L4071.287,884.8z"/>
		</g>
	</g>
	<g>
		<g>
			<path style="fill:#ECF0F6;" d="M4041.662,934.41l19.726-459.342c0.27-6.243,5.198-9.51,9.928-9.51s9.658,3.267,9.927,9.51
				l19.727,459.342H4041.662z"/>
			<path style="fill:#046ABA;" d="M4071.315,469.059c3.127,0,6.254,2.053,6.43,6.16l19.57,455.691h-52l19.57-455.691
				C4065.062,471.112,4068.188,469.059,4071.315,469.059 M4071.315,462.059c-7.338,0-13.109,5.528-13.424,12.859l-19.57,455.691
				l-0.313,7.3h7.307h52h7.307l-0.313-7.3l-19.57-455.691C4084.424,467.587,4078.653,462.059,4071.315,462.059L4071.315,462.059z"/>
		</g>
		<g>
			<path style="fill:#ECF0F6;" d="M4071.315,973.41c-23.435,0-42.5-19.065-42.5-42.5s19.065-42.5,42.5-42.5s42.5,19.065,42.5,42.5
				S4094.75,973.41,4071.315,973.41z"/>
			<path style="fill:#046ABA;" d="M4071.315,891.91c21.539,0,39,17.461,39,39s-17.461,39-39,39c-21.539,0-39-17.461-39-39
				S4049.776,891.91,4071.315,891.91 M4071.315,884.91c-25.365,0-46,20.636-46,46c0,25.365,20.635,46,46,46s46-20.635,46-46
				C4117.315,905.545,4096.68,884.91,4071.315,884.91L4071.315,884.91z"/>
		</g>
	</g>
</g>
</svg>
