<?xml version="1.0" encoding="utf-8"?>
<!-- Generator: Adobe Illustrator 26.2.1, SVG Export Plug-In . SVG Version: 6.00 Build 0)  -->
<svg version="1.1" id="Layer_1" xmlns="http://www.w3.org/2000/svg" xmlns:xlink="http://www.w3.org/1999/xlink" x="0px" y="0px"
	 viewBox="0 0 350 350" style="enable-background:new 0 0 350 350;" xml:space="preserve">
<style type="text/css">
	.st0{fill:#ECF0F6;}
	.st1{fill:#046ABA;}
</style>
<g>
	<g>
		<path class="st0" d="M171.3,178.8l-35.2,3.7c-8.5,0.9-17-0.1-25-2.9L11.9,145c-2.2-0.8-1.4-4.1,1-3.7l160,29.6L171.3,178.8z"/>
		<path class="st1" d="M130.2,183.8c-6.6,0-13.1-1.1-19.4-3.3l-99.3-34.6c-1.4-0.5-2.2-1.8-1.9-3.2c0.2-1.4,1.4-2.5,2.8-2.5
			c0.2,0,0.4,0,0.6,0.1l160,29.6c0.5,0.1,0.9,0.6,0.8,1.2l-1.5,8c-0.1,0.4-0.4,0.8-0.9,0.8l-35.2,3.7
			C134.3,183.7,132.2,183.8,130.2,183.8z M12.5,142.2c-0.5,0-0.8,0.4-0.9,0.8c0,0.2-0.1,0.8,0.6,1l99.3,34.6
			c7.9,2.7,16.3,3.7,24.6,2.9l34.4-3.6l1.2-6.3l-159-29.4C12.6,142.2,12.5,142.2,12.5,142.2z"/>
	</g>
	<g>
		<path class="st0" d="M179.3,174.2l20.7,28.6c5,6.9,8.4,14.8,10,23.1l19.7,103.3c0.5,2.3-2.9,3.3-3.7,1l-54.4-153.3L179.3,174.2z"
			/>
		<path class="st1" d="M227.8,332.5c-1.3,0-2.3-0.8-2.7-2l-54.4-153.3c-0.2-0.5,0.1-1.1,0.6-1.3l7.7-2.7c0.4-0.1,0.9,0,1.1,0.4
			l20.7,28.6c5.1,7,8.5,14.9,10.2,23.5L230.8,329c0.2,0.9,0,1.7-0.6,2.4C229.6,332.1,228.7,332.5,227.8,332.5z M172.9,177.5
			L227,329.9c0.2,0.5,0.6,0.6,0.8,0.6c0.3,0,0.6-0.1,0.8-0.4c0.2-0.2,0.2-0.4,0.2-0.7l-19.7-103.3c-1.6-8.3-4.9-15.9-9.8-22.7
			l-20.3-28L172.9,177.5z"/>
	</g>
	<g>
		<path class="st0" d="M173.2,170.8l14.1-32.4c3.4-7.8,8.4-14.7,14.8-20.4l78.9-69.5c1.8-1.6,4.3,0.9,2.8,2.7L179.5,176L173.2,170.8
			z"/>
		<path class="st1" d="M179.5,177c-0.2,0-0.5-0.1-0.6-0.2l-6.3-5.2c-0.3-0.3-0.5-0.8-0.3-1.2l14.1-32.4c3.4-7.9,8.6-15,15.1-20.7
			l78.9-69.5c0.6-0.5,1.2-0.8,1.9-0.8c1.1,0,2.2,0.7,2.7,1.8c0.5,1,0.3,2.2-0.4,3.1L180.2,176.7C180.1,176.9,179.8,177,179.5,177
			C179.5,177,179.5,177,179.5,177z M174.4,170.5l4.9,4.1L282.9,50.5c0.3-0.3,0.3-0.6,0.2-0.9c-0.3-0.6-1-0.8-1.5-0.4l-78.8,69.5
			c-6.2,5.5-11.2,12.4-14.5,20L174.4,170.5z"/>
	</g>
</g>
<g>
	<path class="st0" d="M174.1,162.5c6.9-0.5,12.9,4.8,13.4,11.7c0.5,6.9-4.8,12.9-11.7,13.4c-6.9,0.5-12.9-4.8-13.4-11.7
		C162,168.9,167.2,162.9,174.1,162.5z"/>
	<path class="st1" d="M175,188.6c-7.1,0-13-5.6-13.5-12.7c-0.3-3.6,0.9-7.1,3.3-9.8c2.4-2.7,5.7-4.4,9.3-4.6
		c7.5-0.5,14,5.2,14.5,12.6c0.5,7.5-5.2,14-12.6,14.5C175.6,188.6,175.3,188.6,175,188.6z M175,163.4c-0.3,0-0.5,0-0.8,0
		c-3.1,0.2-5.9,1.6-7.9,3.9c-2,2.3-3,5.3-2.8,8.4c0.4,6.3,5.9,11.2,12.3,10.8c6.4-0.4,11.2-6,10.8-12.3
		C186.1,168.2,181.1,163.4,175,163.4z"/>
</g>
</svg>
