<?xml version="1.0" encoding="iso-8859-1"?>
<!-- Generator: Adobe Illustrator 17.1.0, SVG Export Plug-In . SVG Version: 6.00 Build 0)  -->
<!DOCTYPE svg PUBLIC "-//W3C//DTD SVG 1.1//EN" "http://www.w3.org/Graphics/SVG/1.1/DTD/svg11.dtd">
<svg version="1.1" id="Layer_1" xmlns="http://www.w3.org/2000/svg" xmlns:xlink="http://www.w3.org/1999/xlink" x="0px" y="0px"
	 viewBox="810.155 156.719 275.579 285.537" style="enable-background:new 810.155 156.719 275.579 285.537;" xml:space="preserve">
<g>
	<g>
		<path style="fill:#ECF0F6;" d="M971.913,288.608l-35.153,3.651c-8.465,0.871-16.995-0.119-25.02-2.917l-99.283-34.593
			c-2.246-0.789-1.363-4.149,0.982-3.725l159.953,29.562L971.913,288.608z"/>
		<path style="fill:#046ABA;" d="M930.793,293.565c-6.622,0-13.144-1.104-19.383-3.28l-99.283-34.593
			c-1.4-0.492-2.174-1.796-1.927-3.247c0.247-1.448,1.414-2.46,2.84-2.46c0.185,0,0.376,0.017,0.576,0.053l159.957,29.563
			c0.543,0.101,0.901,0.622,0.802,1.165l-1.479,8.023c-0.08,0.437-0.438,0.768-0.88,0.813l-35.153,3.651
			C934.852,293.46,932.81,293.565,930.793,293.565z M813.04,251.986c-0.541,0-0.806,0.429-0.868,0.796
			c-0.039,0.229-0.058,0.786,0.615,1.022l99.281,34.592c7.863,2.743,16.269,3.722,24.589,2.867l34.408-3.574l1.161-6.304
			l-158.97-29.38C813.185,251.993,813.11,251.986,813.04,251.986z"/>
	</g>
	<g>
		<path style="fill:#ECF0F6;" d="M979.89,283.959l20.741,28.614c4.998,6.885,8.399,14.771,10.007,23.128l19.708,103.257
			c0.456,2.342-2.923,3.255-3.712,1.009l-54.446-153.271L979.89,283.959z"/>
		<path style="fill:#046ABA;" d="M1028.407,442.256c-1.251,0-2.293-0.75-2.717-1.957L971.246,287.03
			c-0.185-0.521,0.087-1.092,0.607-1.277l7.701-2.737c0.415-0.148,0.883-0.004,1.145,0.355l20.742,28.614
			c5.104,7.032,8.528,14.948,10.179,23.526l19.708,103.258c0.173,0.887-0.031,1.741-0.574,2.4
			C1030.193,441.85,1029.316,442.256,1028.407,442.256z M973.466,287.303l54.11,152.329c0.182,0.517,0.552,0.624,0.831,0.624
			c0.313,0,0.621-0.137,0.803-0.358c0.161-0.195,0.213-0.447,0.154-0.749l-19.709-103.26c-1.594-8.287-4.902-15.934-9.833-22.728
			l-20.303-28.009L973.466,287.303z"/>
	</g>
	<g>
		<path style="fill:#ECF0F6;" d="M973.761,280.557l14.073-32.424c3.385-7.789,8.447-14.749,14.805-20.381l78.851-69.528
			c1.79-1.569,4.3,0.864,2.772,2.681l-104.23,124.891L973.761,280.557z"/>
		<path style="fill:#046ABA;" d="M980.03,286.796c-0.233,0-0.461-0.082-0.642-0.233l-6.27-5.239
			c-0.34-0.285-0.452-0.759-0.275-1.166l14.072-32.424c3.418-7.864,8.625-15.033,15.059-20.732l78.853-69.53
			c0.563-0.494,1.229-0.754,1.927-0.754c1.129,0,2.219,0.71,2.711,1.767c0.477,1.024,0.313,2.169-0.438,3.063L980.798,286.437
			c-0.17,0.204-0.414,0.332-0.678,0.355C980.09,286.794,980.06,286.796,980.03,286.796z M974.976,280.269l4.928,4.118
			l103.59-124.123c0.254-0.303,0.307-0.616,0.159-0.934c-0.263-0.563-0.983-0.815-1.505-0.355l-78.849,69.526
			c-6.215,5.506-11.246,12.433-14.549,20.03L974.976,280.269z"/>
	</g>
	<g>
		<path style="fill:#ECF0F6;" d="M974.059,271.62c6.911-0.464,12.925,4.762,13.396,11.687c0.462,6.927-4.762,12.933-11.697,13.396
			c-6.919,0.469-12.918-4.769-13.376-11.689C961.9,278.089,967.145,272.09,974.059,271.62z"/>
		<path style="fill:#046ABA;" d="M974.896,297.732c-7.107,0-13.043-5.557-13.513-12.652c-0.251-3.607,0.923-7.101,3.304-9.834
			c2.384-2.736,5.688-4.378,9.304-4.624c7.507-0.514,13.959,5.221,14.462,12.616c0.498,7.476-5.167,13.963-12.629,14.461
			C975.515,297.722,975.204,297.732,974.896,297.732z M974.912,272.591c-0.261,0-0.522,0.009-0.786,0.026
			c-3.081,0.209-5.897,1.609-7.931,3.942c-2.029,2.33-3.03,5.307-2.815,8.385c0.418,6.313,5.927,11.197,12.311,10.76
			c6.362-0.425,11.192-5.957,10.767-12.332C986.046,277.328,980.975,272.591,974.912,272.591z"/>
	</g>
</g>
</svg>
