<?xml version="1.0" encoding="utf-8"?>
<!-- Generator: Adobe Illustrator 27.0.1, SVG Export Plug-In . SVG Version: 6.00 Build 0)  -->
<svg version="1.1" id="Layer_1" xmlns="http://www.w3.org/2000/svg" xmlns:xlink="http://www.w3.org/1999/xlink" x="0px" y="0px"
	 viewBox="0 0 263.5 650.5" style="enable-background:new 0 0 263.5 650.5;" xml:space="preserve">
<style type="text/css">
	.st0{fill:none;stroke:#046ABA;stroke-width:2;stroke-linecap:round;stroke-linejoin:round;}
</style>
<g id="Group_147" transform="translate(0 0)">
	<g>
		<g id="Group_144">
			<g id="Group_143" transform="translate(0.845 0.846)">
				<path id="Path_72" class="st0" d="M68.1,567.3v81.3 M42.2,648.6h52.6v-81.3H42.2L42.2,648.6z M26.9,447.6h210.5v-45.7H26.9
					V447.6z M26.9,355.3h210.5v-45.7H26.9V355.3z M26.9,263h210.5v-45.7H26.9V263z M26.9,170.6h210.5v-45.7H26.9V170.6z
					 M261.6,646.9V0.2H54.4v85.7H0.2v562.8h261.5"/>
			</g>
		</g>
	</g>
	<path id="Path_74" class="st0" d="M26.5,538.2H237v-45.7H26.5V538.2z"/>
	<path id="Path_75" class="st0" d="M84.3,79.6H237V33.9H84.3V79.6z"/>
</g>
</svg>
