<?xml version="1.0" encoding="iso-8859-1"?>
<!-- Generator: Adobe Illustrator 17.1.0, SVG Export Plug-In . SVG Version: 6.00 Build 0)  -->
<!DOCTYPE svg PUBLIC "-//W3C//DTD SVG 1.1//EN" "http://www.w3.org/Graphics/SVG/1.1/DTD/svg11.dtd">
<svg version="1.1" id="Layer_1" xmlns="http://www.w3.org/2000/svg" xmlns:xlink="http://www.w3.org/1999/xlink" x="0px" y="0px"
	 viewBox="0 0 265.492 300" style="enable-background:new 0 0 265.492 300;" xml:space="preserve">
<g>
	<path style="fill:#146BBA;" d="M151.203,127.011h-36.289c-3.278,0-6.237-1.226-8.552-3.544c-2.321-2.318-3.544-5.274-3.544-8.552
		V12.096c0-3.278,1.223-6.234,3.544-8.552C108.677,1.226,111.637,0,114.915,0h36.289c3.278,0,6.237,1.226,8.552,3.544
		c2.321,2.318,3.544,5.274,3.544,8.552v102.818c0,3.278-1.223,6.234-3.544,8.552C157.441,125.785,154.481,127.011,151.203,127.011z
		 M114.915,12.096v102.818l36.366-0.003l-0.077-102.815H114.915z"/>
</g>
<g>
	<defs>
		<path id="SVGID_29_" d="M132.746,293.952c69.957,0,126.699-56.742,126.699-126.699S202.702,40.555,132.746,40.555
			S6.047,97.297,6.047,167.253S62.789,293.952,132.746,293.952z"/>
	</defs>
	<clipPath id="SVGID_2_">
		<use xlink:href="#SVGID_29_"  style="overflow:visible;"/>
	</clipPath>
	<g style="clip-path:url(#SVGID_2_);">
		
			<image style="overflow:visible;" width="1920" height="1280" xlink:href="../../links/Large Screen 72 DPI-Vattenfall_Hybrit pilot 20-06-02 Fotograf &#xC5;sa B&#xE4;cklin (1).png"  transform="matrix(0.2007 0 0 0.2007 -47.5065 38.6684)">
		</image>
	</g>
</g>
<g>
	<path style="fill:#146BBA;" d="M132.746,300C59.548,300,0,240.452,0,167.254S59.548,34.505,132.746,34.505
		s132.746,59.551,132.746,132.749S205.944,300,132.746,300z M132.746,46.601c-66.524,0-120.65,54.123-120.65,120.653
		c0,66.527,54.126,120.65,120.65,120.65s120.65-54.123,120.65-120.65C253.396,100.725,199.27,46.601,132.746,46.601z"/>
</g>
</svg>
