<?xml version="1.0" encoding="utf-8"?>
<!-- Generator: Adobe Illustrator 26.2.1, SVG Export Plug-In . SVG Version: 6.00 Build 0)  -->
<svg version="1.1" id="Layer_1" xmlns="http://www.w3.org/2000/svg" xmlns:xlink="http://www.w3.org/1999/xlink" x="0px" y="0px"
	 viewBox="0 0 200 200" style="enable-background:new 0 0 200 200;" xml:space="preserve">
<style type="text/css">
	.st0{fill:none;}
	.st1{fill:none;stroke:#146BBA;stroke-width:2;}
	.st2{fill:#FFFFFF;stroke:#146BBA;stroke-width:2;}
</style>
<g id="Group_64" transform="translate(-969 -428)">
	<g id="Rectangle_1" transform="translate(986 428)">
		<path class="st0" d="M80.1,75.7h6c1.1,0,2,0.9,2,2v17c0,1.1-0.9,2-2,2h-6c-1.1,0-2-0.9-2-2v-17C78.1,76.6,78.9,75.7,80.1,75.7z"/>
		<path class="st1" d="M80.1,76.7h6c0.6,0,1,0.4,1,1v17c0,0.6-0.4,1-1,1h-6c-0.6,0-1-0.4-1-1v-17C79.1,77.1,79.5,76.7,80.1,76.7z"/>
	</g>
	<g id="Group_57" transform="translate(970 434.705)">
		<path id="_3ed0f63db6119c9b6379c4b4bc21c95b" class="st2" d="M99,117.6c11.6,0,20.9-9.4,20.9-20.9S110.6,75.7,99,75.7
			c-11.6,0-20.9,9.4-20.9,20.9C78.1,108.2,87.4,117.6,99,117.6z"/>
	</g>
</g>
</svg>
