<?xml version="1.0" encoding="utf-8"?>
<!-- Generator: Adobe Illustrator 26.2.1, SVG Export Plug-In . SVG Version: 6.00 Build 0)  -->
<svg version="1.1" id="Layer_1" xmlns="http://www.w3.org/2000/svg" xmlns:xlink="http://www.w3.org/1999/xlink" x="0px" y="0px"
	 viewBox="0 0 205.3 31.5" style="enable-background:new 0 0 205.3 31.5;" xml:space="preserve">
<style type="text/css">
	.st0{fill:#4E4B48;}
	.st1{fill:#FFDA00;}
	.st2{fill:#2071B5;}
</style>
<g id="Group_105" transform="translate(-857.183 -615.222)">
	<g id="Group_92" transform="translate(890.754 622.445)">
		<path id="Path_32" class="st0" d="M14.5,0H-0.1v3.8h5.2v14.1h4.7V3.8h4.7L14.5,0z"/>
	</g>
	<g id="Group_93" transform="translate(906.983 622.445)">
		<path id="Path_33" class="st0" d="M-0.1,0v3.8h4.7v14.1h4.7V3.8h5.2V0H-0.1z"/>
	</g>
	<g id="Group_94" transform="translate(940.367 622.446)">
		<path id="Path_34" class="st0" d="M16.9,18V0.1h-4.5v10.7l-8-10.7h-4.5V18h4.5V7.4l8,10.6H16.9z"/>
	</g>
	<g id="Group_95" transform="translate(923.853 622.446)">
		<path id="Path_35" class="st0" d="M-0.1,18h13.3v-3.8H4.6v-3.5h7.3V6.9H4.6V4h8.6V0.2H-0.1V18z"/>
	</g>
	<g id="Group_96" transform="translate(960.904 622.446)">
		<path id="Path_36" class="st0" d="M-0.1,18h4.7v-7.3h7.6V6.9H4.6v-3h9V0.1H-0.1V18z"/>
	</g>
	<g id="Group_97" transform="translate(857.183 622.445)">
		<path id="Path_37" class="st0" d="M14.7,0L9.6,12.6l0,0L4.5,0H0l7.4,17.9H12L19.4,0H14.7z"/>
	</g>
	<g id="Group_98" transform="translate(1009.107 622.446)">
		<path id="Path_38" class="st0" d="M-0.1,18h13v-4H4.6V0h-4.7V18z"/>
	</g>
	<g id="Group_99" transform="translate(994.108 622.446)">
		<path id="Path_39" class="st0" d="M-0.1,18h13v-4H4.6V0h-4.7V18z"/>
	</g>
	<g id="Group_100" transform="translate(973.025 622.444)">
		<path id="Path_40" class="st0" d="M7.2,11.1L9.7,5l0,0l2.5,6.1H7.2z M15,18h4.5L12,0.1H7.4L-0.1,18h4.5l1.3-3.2h7.9L15,18z"/>
	</g>
	<g id="Group_101" transform="translate(873.494 622.444)">
		<path id="Path_41" class="st0" d="M7.2,11.1L9.7,5l0,0l2.5,6.1H7.2z M15,18h4.5L12,0.1H7.4L-0.1,18h4.5l1.3-3.2h7.9L15,18z"/>
	</g>
	<g>
		<g id="Group_104" transform="translate(857.183 615.222)">
			<g id="Group_102" transform="translate(173.863 0.001)">
				<path id="Path_42" class="st1" d="M15.7,0C7,0,0,7,0,15.7l0,0h31.4C31.4,7.1,24.3,0,15.7,0"/>
			</g>
			<g id="Group_103" transform="translate(173.863 15.718)">
				<path id="Path_43" class="st2" d="M15.7,15.8C7,15.8,0,8.8,0,0.1l0,0h31.4C31.4,8.7,24.3,15.8,15.7,15.8L15.7,15.8"/>
			</g>
		</g>
	</g>
</g>
</svg>
