<?xml version="1.0" encoding="iso-8859-1"?>
<!-- Generator: Adobe Illustrator 17.1.0, SVG Export Plug-In . SVG Version: 6.00 Build 0)  -->
<!DOCTYPE svg PUBLIC "-//W3C//DTD SVG 1.1//EN" "http://www.w3.org/Graphics/SVG/1.1/DTD/svg11.dtd">
<svg version="1.1" id="Layer_1" xmlns="http://www.w3.org/2000/svg" xmlns:xlink="http://www.w3.org/1999/xlink" x="0px" y="0px"
	 viewBox="151 -0.474 338 480.949" style="enable-background:new 151 -0.474 338 480.949;" xml:space="preserve">
<g>
	<g>
		<g id="Group_139" transform="translate(-765.79 -243.268)">
			<g id="Rectangle_29" transform="translate(1092.79 852)">
				<rect x="47.173" y="-195.292" style="fill:#ECF0F6;" width="50.26" height="6.113"/>
				<rect x="46.494" y="-195.971" style="fill:none;stroke:#146BBA;stroke-width:2;" width="51.618" height="7.471"/>
			</g>
			<g id="Rectangle_30" transform="translate(1094.79 861)">
				<rect x="46.532" y="-198.179" style="fill:#ECF0F6;" width="47.543" height="46.863"/>
				<rect x="47.211" y="-197.5" style="fill:none;stroke:#146BBA;stroke-width:2;" width="46.184" height="45.506"/>
			</g>
			<g id="Rectangle_31" transform="translate(1122.79 861)">
				<rect x="37.549" y="-198.179" style="fill:#ECF0F6;" width="9.508" height="46.863"/>
				<rect x="38.228" y="-197.5" style="fill:none;stroke:#146BBA;stroke-width:2;" width="8.15" height="45.506"/>
			</g>
		</g>
		<g id="Group_138" transform="translate(-711.79 -237.456)">
			<g id="Rectangle_29-2" transform="translate(1092.79 854)">
				<rect x="29.85" y="-197.798" style="fill:#ECF0F6;" width="50.26" height="4.754"/>
				<rect x="29.17" y="-198.477" style="fill:none;stroke:#146BBA;stroke-width:2;" width="51.618" height="6.113"/>
			</g>
			<g id="Rectangle_30-2" transform="translate(1094.79 861)">
				<rect x="29.208" y="-200.044" style="fill:#ECF0F6;" width="47.543" height="46.863"/>
				<rect x="29.887" y="-199.364" style="fill:none;stroke:#146BBA;stroke-width:2;" width="46.184" height="45.506"/>
			</g>
			<g id="Rectangle_31-2" transform="translate(1122.79 861)">
				<rect x="20.225" y="-200.044" style="fill:#ECF0F6;" width="9.508" height="46.863"/>
				<rect x="20.904" y="-199.364" style="fill:none;stroke:#146BBA;stroke-width:2;" width="8.15" height="45.506"/>
			</g>
		</g>
		<g id="Rectangle_25" transform="translate(122 623.732)">
			<rect x="112.941" y="-200.105" style="fill:#ECF0F6;" width="55.014" height="48.901"/>
			<rect x="113.621" y="-199.425" style="fill:none;stroke:#146BBA;stroke-width:2;" width="53.656" height="47.543"/>
		</g>
		<g id="Rectangle_26" transform="translate(156 695.732) rotate(-90)">
			
				<rect x="242.91" y="82.364" transform="matrix(-2.547107e-006 -1 1 -2.547107e-006 140.8503 354.4782)" style="fill:#ECF0F6;" width="9.508" height="48.901"/>
			
				<rect x="243.589" y="83.042" transform="matrix(-2.547107e-006 -1 1 -2.547107e-006 140.8508 354.4781)" style="fill:none;stroke:#146BBA;stroke-width:2;" width="8.15" height="47.543"/>
		</g>
		<g id="Rectangle_27" transform="translate(120 611.732)">
			<rect x="113.583" y="-196.254" style="fill:#ECF0F6;" width="57.731" height="9.508"/>
			<rect x="114.261" y="-195.575" style="fill:none;stroke:#146BBA;stroke-width:2;" width="56.372" height="8.15"/>
		</g>
		<g id="Rectangle_22" transform="translate(39 614.544)">
			<rect x="139.569" y="-197.157" style="fill:#ECF0F6;" width="52.297" height="51.618"/>
			<rect x="140.248" y="-196.477" style="fill:none;stroke:#146BBA;stroke-width:2;" width="50.939" height="50.26"/>
		</g>
		<g id="Rectangle_23" transform="translate(37 605.544)">
			<rect x="140.21" y="-194.269" style="fill:#ECF0F6;" width="55.014" height="7.471"/>
			<rect x="140.89" y="-193.589" style="fill:none;stroke:#146BBA;stroke-width:2;" width="53.656" height="6.113"/>
		</g>
		<g id="Rectangle_24" transform="translate(71 614.544)">
			<rect x="129.303" y="-197.157" style="fill:none;" width="9.508" height="51.618"/>
			<rect x="129.982" y="-196.477" style="fill:none;stroke:#146BBA;stroke-width:2;" width="8.15" height="50.26"/>
		</g>
		<g id="Group_84" transform="translate(612 166.175)">
			<g id="Group_42" transform="translate(2.368 2.366)">
				<path id="Path_30" style="fill:#3CC07B;" d="M-440.372,206.056c0,0-1.766,13.448,25.062,21.462
					c26.827,8.015,53.112,15.757,117.566,15.553s74.642-0.747,113.966-12.225c39.325-11.41,36.608-23.975,36.608-23.975
					l-32.465-47.272c0,0,6.928-2.92,10.188-7.674c3.26-4.754,2.717-2.853,0-7.335c-2.717-4.482-32.058-53.859-32.058-53.859
					s7.064-3.192,10.323-6.723s2.513-6.045,2.513-6.045l-44.079-53.452c2.649-1.29,5.094-2.853,7.335-4.822
					c2.988-2.785,1.495-3.464,1.495-3.464l-69.956-120.011l-72.673,121.03c0,0,2.105,3.26,4.619,4.687
					c1.358,0.815,2.92,1.222,4.482,1.222l-41.431,56.236c1.222,3.668,3.939,6.656,7.539,8.218c5.841,2.446,6.928,1.97,6.928,1.97
					l-35.386,57.527c0,0,0.951,5.773,3.6,8.15c2.581,2.309,6.86,4.143,6.86,4.143L-440.372,206.056z"/>
			</g>
		</g>
		<path id="Path_84" style="fill:none;stroke:#146BBA;stroke-width:2;" d="M398.081,213.059
			c-66.288,8.286-113.016-25.266-136.312-50.192"/>
		<path id="Path_83" style="fill:none;stroke:#146BBA;stroke-width:2;" d="M403.514,220.53
			c-66.288,8.286-121.777-21.734-145.277-52.094"/>
		<path id="Path_82" style="fill:none;stroke:#146BBA;stroke-width:2;" d="M435.979,299.044
			c-59.7,36.676-147.383,68.53-249.94,58.274"/>
		<path id="Path_81" style="fill:none;stroke:#146BBA;stroke-width:2;" d="M440.19,306.04
			c-60.99,37.423-154.718,69.888-259.448,59.429"/>
		<g id="Group_56" transform="translate(66.953 212.422)">
			<path id="Path_15" style="fill:none;stroke:#FFDA39;stroke-width:2;stroke-linecap:round;stroke-miterlimit:10;" d="
				M377.824,130.716c-33.009,3.736-155.873,11.139-230.651-27.71c34.977-0.612,69.752-6.113,99.976-17.387
				c38.578-14.195,75.185-35.182,109.689-53.18c0,0-3.328-3.939-3.464-4.007c-38.171,5.298-83.2,6.248-120.419-1.698
				c-19.833-4.075-38.442-10.12-56.236-16.98c37.151-8.422,72.876-19.968,101.945-37.083c12.701-7.471,21.734-13.108,32.261-21.802
				c0,0-2.105-3.668-3.736-6.384c-30.359,1.698-62.756,1.427-89.788-8.557c-2.241-0.747-9.237-3.328-11.342-4.211l-3.328,5.773
				c19.153,8.015,45.165,12.769,68.054,13.448c9.44,0.339,18.95,0.204,28.39-0.136c-25.062,18.814-53.248,33.144-83.2,42.313
				C202.662-2.54,190.369,1.332,176.31,4.66c-1.222,0.271-4.822,0.68-6.045,1.019l-4.89,6.655c0.815,0.339,2.581,0.747,3.396,1.087
				c34.366,13.72,73.284,23.568,114.102,24.79c17.184,0.544,34.435-0.068,51.55-1.766c-31.786,16.64-62.553,34.366-99.025,46.66
				c-29.748,10.188-70.703,14.331-103.711,13.991l-1.97,2.92c2.241,2.853,8.286,5.162,11.818,7.335
				c31.039,16.233,68.937,26.759,108.67,30.359c47.067,4.415,82.86,3.6,131.965,0"/>
		</g>
		<g id="Group_71" transform="translate(-747 -126.268)">
			<path id="Path_45" style="fill:#3CC07B;" d="M1097.334,537.807h-57.119v35.249h57.119V537.807z"/>
			<g id="Group_70" transform="translate(777 220.442)">
				<g id="Group_42-2" transform="translate(2.368 2.366)">
					
						<path id="Path_20" style="fill:none;stroke:#3CC07B;stroke-width:2;stroke-linecap:round;stroke-linejoin:round;stroke-miterlimit:10;" d="
						M414.389,219.579c0,4.347-3.939,8.898-11.886,12.701l32.329,47.135c0.068,19.085-71.994,36.065-146.568,36.065
						s-146.568-16.98-146.568-36.064l30.835-47.475c-6.996-3.6-10.323-8.354-10.323-12.361 M182.923,151.524
						c0,3.939,5.365,7.674,14.942,11.071l-35.657,56.983 M393.673,151.524c0,3.6-5.162,7.742-13.108,10.867
						c-0.475,0.204,0.544-0.203,0,0l33.823,57.187 M215.66,89.244c0,2.31,2.988,4.482,8.625,6.316l-41.362,55.965 M358.628,89.244
						c0,2.446-3.056,4.958-9.237,6.928l44.283,55.285 M358.628,89.244L288.264-30.972l-36.337,60.108l-36.337,60.108"/>
				</g>
			</g>
		</g>
		<path id="Union_1" style="fill:#FFDA39;" d="M315.9,72.808v-7.606c-5.162-2.649-7.267-8.965-4.618-14.127
			c1.222-2.446,3.396-4.347,6.045-5.23c-1.019-1.563-2.378-3.328-3.329-3.871c-0.271-0.136-0.407-0.68-0.407-1.495
			c0-6.52,6.996-31.582,6.996-40.479h0.203c0,8.83,6.996,33.959,6.996,40.479c0,0.815-0.136,1.358-0.407,1.495
			c-0.951,0.544-2.309,2.378-3.329,3.871c5.501,1.834,8.489,7.811,6.656,13.312c-0.883,2.649-2.785,4.822-5.298,6.113v7.606H315.9
			L315.9,72.808L315.9,72.808L315.9,72.808L315.9,72.808z"/>
		<g id="Group_141" transform="translate(-1090.79 -223.268)">
			<g id="Rectangle_29-3" transform="translate(1092.79 854)">
				<rect x="151.439" y="-202.349" style="fill:#ECF0F6;" width="50.26" height="4.754"/>
				<rect x="150.76" y="-203.029" style="fill:none;stroke:#146BBA;stroke-width:2;" width="51.618" height="6.113"/>
			</g>
			<g id="Rectangle_30-3" transform="translate(1094.79 861)">
				<rect x="150.798" y="-204.595" style="fill:#ECF0F6;" width="47.543" height="46.863"/>
				<rect x="151.476" y="-203.916" style="fill:none;stroke:#146BBA;stroke-width:2;" width="46.184" height="45.506"/>
			</g>
			<g id="Rectangle_31-3" transform="translate(1122.79 861)">
				<rect x="141.814" y="-204.595" style="fill:#ECF0F6;" width="9.508" height="46.863"/>
				<rect x="142.493" y="-203.916" style="fill:none;stroke:#146BBA;stroke-width:2;" width="8.15" height="45.506"/>
			</g>
		</g>
	</g>
	<rect x="151" y="-0.474" style="fill:none;" width="338" height="480.949"/>
</g>
</svg>
