<?xml version="1.0" encoding="iso-8859-1"?>
<!-- Generator: Adobe Illustrator 17.1.0, SVG Export Plug-In . SVG Version: 6.00 Build 0)  -->
<!DOCTYPE svg PUBLIC "-//W3C//DTD SVG 1.1//EN" "http://www.w3.org/Graphics/SVG/1.1/DTD/svg11.dtd">
<svg version="1.1" id="Layer_1" xmlns="http://www.w3.org/2000/svg" xmlns:xlink="http://www.w3.org/1999/xlink" x="0px" y="0px"
	 viewBox="844.541 138.741 525.808 799.604" style="enable-background:new 844.541 138.741 525.808 799.604;" xml:space="preserve">
<g id="Group_139" transform="translate(-765.79 -243.268)">
	<g id="Rectangle_29" transform="translate(1092.79 852)">
		<rect x="887.381" y="218.734" style="fill:#ECF0F6;" width="83.725" height="10.183"/>
		<rect x="886.25" y="217.604" style="fill:none;stroke:#146BBA;stroke-width:2;" width="85.987" height="12.445"/>
	</g>
	<g id="Rectangle_30" transform="translate(1094.79 861)">
		<rect x="887.644" y="219.918" style="fill:#ECF0F6;" width="79.199" height="78.067"/>
		<rect x="888.775" y="221.049" style="fill:none;stroke:#146BBA;stroke-width:2;" width="76.935" height="75.805"/>
	</g>
	<g id="Rectangle_31" transform="translate(1122.79 861)">
		<rect x="891.323" y="219.918" style="fill:#ECF0F6;" width="15.839" height="78.067"/>
		<rect x="892.455" y="221.049" style="fill:none;stroke:#146BBA;stroke-width:2;" width="13.577" height="75.805"/>
	</g>
</g>
<g id="Group_138" transform="translate(-711.79 -237.456)">
	<g id="Rectangle_29-2" transform="translate(1092.79 854)">
		<rect x="894.478" y="219.762" style="fill:#ECF0F6;" width="83.725" height="7.92"/>
		<rect x="893.346" y="218.63" style="fill:none;stroke:#146BBA;stroke-width:2;" width="85.987" height="10.183"/>
	</g>
	<g id="Rectangle_30-2" transform="translate(1094.79 861)">
		<rect x="894.74" y="220.681" style="fill:#ECF0F6;" width="79.199" height="78.067"/>
		<rect x="895.872" y="221.813" style="fill:none;stroke:#146BBA;stroke-width:2;" width="76.935" height="75.805"/>
	</g>
	<g id="Rectangle_31-2" transform="translate(1122.79 861)">
		<rect x="898.42" y="220.681" style="fill:#ECF0F6;" width="15.839" height="78.067"/>
		<rect x="899.552" y="221.813" style="fill:none;stroke:#146BBA;stroke-width:2;" width="13.577" height="75.805"/>
	</g>
</g>
<g id="Rectangle_25" transform="translate(122 623.732)">
	<rect x="860.442" y="220.705" style="fill:#ECF0F6;" width="91.644" height="81.461"/>
	<rect x="861.574" y="221.837" style="fill:none;stroke:#146BBA;stroke-width:2;" width="89.382" height="79.199"/>
</g>
<g id="Rectangle_26" transform="translate(156 695.732) rotate(-90)">
	
		<rect x="-197.339" y="832.142" transform="matrix(-2.547107e-006 -1 1 -2.547107e-006 -1062.2922 683.4548)" style="fill:#ECF0F6;" width="15.839" height="81.461"/>
	
		<rect x="-196.208" y="833.272" transform="matrix(-2.547107e-006 -1 1 -2.547107e-006 -1062.2908 683.4543)" style="fill:none;stroke:#146BBA;stroke-width:2;" width="13.577" height="79.199"/>
</g>
<g id="Rectangle_27" transform="translate(120 611.732)">
	<rect x="860.18" y="219.13" style="fill:#ECF0F6;" width="96.17" height="15.839"/>
	<rect x="861.31" y="220.26" style="fill:none;stroke:#146BBA;stroke-width:2;" width="93.906" height="13.577"/>
</g>
<g id="Rectangle_22" transform="translate(39 614.544)">
	<rect x="849.535" y="219.498" style="fill:#ECF0F6;" width="87.119" height="85.987"/>
	<rect x="850.666" y="220.63" style="fill:none;stroke:#146BBA;stroke-width:2;" width="84.857" height="83.725"/>
</g>
<g id="Rectangle_23" transform="translate(37 605.544)">
	<rect x="849.272" y="218.316" style="fill:#ECF0F6;" width="91.644" height="12.445"/>
	<rect x="850.404" y="219.448" style="fill:none;stroke:#146BBA;stroke-width:2;" width="89.382" height="10.183"/>
</g>
<g id="Rectangle_24" transform="translate(71 614.544)">
	<rect x="853.74" y="219.498" style="fill:none;" width="15.839" height="85.987"/>
	<rect x="854.871" y="220.63" style="fill:none;stroke:#146BBA;stroke-width:2;" width="13.577" height="83.725"/>
</g>
<g id="Group_84" transform="translate(612 166.175)">
	<g id="Group_42" transform="translate(2.368 2.366)">
		<path id="Path_30" style="fill:#3CC07B;" d="M266.55,594.22c0,0-2.942,22.402,41.749,35.752
			c44.69,13.351,88.477,26.248,195.847,25.909s124.341-1.245,189.85-20.365c65.509-19.007,60.983-39.939,60.983-39.939
			l-54.081-78.747c0,0,11.541-4.865,16.971-12.784c5.43-7.92,4.526-4.752,0-12.219s-53.403-89.721-53.403-89.721
			s11.767-5.317,17.197-11.2s4.187-10.07,4.187-10.07l-73.428-89.042c4.413-2.149,8.486-4.752,12.219-8.033
			c4.978-4.639,2.49-5.771,2.49-5.771L510.596,78.07L389.535,279.687c0,0,3.507,5.431,7.694,7.807
			c2.262,1.358,4.865,2.036,7.467,2.036l-69.017,93.68c2.036,6.11,6.562,11.087,12.558,13.69c9.73,4.074,11.541,3.281,11.541,3.281
			l-58.947,95.831c0,0,1.584,9.617,5.997,13.577c4.3,3.846,11.427,6.902,11.427,6.902L266.55,594.22z"/>
	</g>
</g>
<path id="Path_84" style="fill:none;stroke:#146BBA;stroke-width:2;" d="M1254.207,493.664
	c-110.425,13.803-188.266-42.089-227.075-83.612"/>
<path id="Path_83" style="fill:none;stroke:#146BBA;stroke-width:2;" d="M1263.258,506.109
	c-110.425,13.803-202.862-36.206-242.008-86.78"/>
<path id="Path_82" style="fill:none;stroke:#146BBA;stroke-width:2;" d="M1317.339,636.901
	c-99.451,61.096-245.517,114.16-416.36,97.076"/>
<path id="Path_81" style="fill:none;stroke:#146BBA;stroke-width:2;" d="M1324.355,648.555
	c-101.6,62.341-257.736,116.422-432.199,98.999"/>
<g id="Group_56" transform="translate(66.953 212.422)">
	<path id="Path_15" style="fill:none;stroke:#FFDA39;stroke-width:2;stroke-linecap:round;stroke-miterlimit:10;" d="
		M1265.042,497.932c-54.987,6.223-259.659,18.555-384.228-46.161c58.267-1.019,116.196-10.183,166.544-28.964
		c64.264-23.646,125.247-58.607,182.724-88.59c0,0-5.544-6.562-5.771-6.675c-63.586,8.825-138.598,10.409-200.599-2.829
		c-33.038-6.788-64.038-16.858-93.68-28.286c61.887-14.029,121.4-33.264,169.825-61.774c21.158-12.445,36.206-21.836,53.742-36.319
		c0,0-3.507-6.11-6.223-10.635c-50.574,2.829-104.542,2.377-149.573-14.255c-3.733-1.245-15.387-5.544-18.894-7.015l-5.544,9.617
		c31.906,13.351,75.238,21.271,113.367,22.402c15.726,0.565,31.567,0.339,47.293-0.226c-41.749,31.341-88.703,55.213-138.598,70.487
		c-22.176,7.241-42.654,13.69-66.074,19.235c-2.036,0.452-8.033,1.132-10.07,1.697l-8.146,11.087c1.358,0.565,4.3,1.245,5.658,1.81
		c57.249,22.855,122.079,39.26,190.076,41.296c28.625,0.906,57.363-0.113,85.874-2.942c-52.951,27.719-104.203,57.249-164.96,77.728
		c-49.555,16.971-117.78,23.873-172.766,23.307l-3.281,4.865c3.733,4.752,13.803,8.599,19.687,12.219
		c51.706,27.041,114.838,44.577,181.027,50.574c78.406,7.354,138.032,5.997,219.833,0"/>
</g>
<g id="Group_71" transform="translate(-747 -126.268)">
	<path id="Path_45" style="fill:#3CC07B;" d="M1921.669,950.567h-95.151v58.72h95.151V950.567z"/>
	<g id="Group_70" transform="translate(777 220.442)">
		<g id="Group_42-2" transform="translate(2.368 2.366)">
			
				<path id="Path_20" style="fill:none;stroke:#3CC07B;stroke-width:2;stroke-linecap:round;stroke-linejoin:round;stroke-miterlimit:10;" d="
				M1302.926,568.805c0,7.241-6.562,14.822-19.8,21.158l53.855,78.519c0.113,31.793-119.93,60.079-244.159,60.079
				s-244.159-28.286-244.159-60.077l51.367-79.086c-11.654-5.997-17.197-13.916-17.197-20.592 M917.34,455.437
				c0,6.562,8.938,12.784,24.891,18.442l-59.399,94.925 M1268.417,455.437c0,5.997-8.599,12.897-21.836,18.103
				c-0.791,0.339,0.906-0.339,0,0l56.344,95.264 M971.875,351.687c0,3.848,4.978,7.467,14.368,10.522l-68.903,93.228
				 M1210.037,351.687c0,4.074-5.091,8.259-15.387,11.541l73.768,92.096 M1210.037,351.687l-117.215-200.26l-60.531,100.131
				l-60.531,100.13"/>
		</g>
	</g>
</g>
<path id="Union_1" style="fill:#FFDA39;" d="M1117.306,260.028v-12.671c-8.599-4.413-12.106-14.935-7.693-23.533
	c2.036-4.074,5.657-7.241,10.07-8.712c-1.697-2.603-3.961-5.544-5.545-6.449c-0.452-0.226-0.678-1.132-0.678-2.49
	c0-10.861,11.654-52.61,11.654-67.432h0.339c0,14.709,11.654,56.571,11.654,67.432c0,1.358-0.226,2.262-0.678,2.49
	c-1.584,0.906-3.846,3.961-5.545,6.449c9.164,3.055,14.142,13.012,11.087,22.176c-1.471,4.413-4.639,8.033-8.825,10.183v12.671
	h-15.839v-0.115h-0.001V260.028z"/>
<g id="Group_141" transform="translate(-1090.79 -223.268)">
	<g id="Rectangle_29-3" transform="translate(1092.79 854)">
		<rect x="844.672" y="221.627" style="fill:#ECF0F6;" width="83.725" height="7.92"/>
		<rect x="843.541" y="220.495" style="fill:none;stroke:#146BBA;stroke-width:2;" width="85.987" height="10.183"/>
	</g>
	<g id="Rectangle_30-3" transform="translate(1094.79 861)">
		<rect x="844.936" y="222.546" style="fill:#ECF0F6;" width="79.199" height="78.067"/>
		<rect x="846.066" y="223.678" style="fill:none;stroke:#146BBA;stroke-width:2;" width="76.935" height="75.805"/>
	</g>
	<g id="Rectangle_31-3" transform="translate(1122.79 861)">
		<rect x="848.614" y="222.546" style="fill:#ECF0F6;" width="15.839" height="78.067"/>
		<rect x="849.746" y="223.678" style="fill:none;stroke:#146BBA;stroke-width:2;" width="13.577" height="75.805"/>
	</g>
</g>
</svg>
