<svg xmlns="http://www.w3.org/2000/svg" width="213.77" height="276.567" viewBox="0 0 213.77 276.567">
  <g id="Group_91" data-name="Group 91" transform="translate(0.963 0.443)">
    <g id="Group_85" data-name="Group 85" transform="translate(0 0)">
      <g id="Group_42" data-name="Group 42" transform="translate(0 0)">
        <path id="Path_30" data-name="Path 30" d="M0,223.625s1.17,8.417,13.8,12.794,42.7,14.085,89.263,13.926,58.515-3.822,83.051-10.065,25.735-16.067,25.735-16.067l-23.438-34.164s4.981-2.09,7.339-5.528,1.969-2.06,0-5.319-23.5-39.716-23.5-39.716,5.465-1.475,7.791-4.045,1.818-4.372,1.818-4.372L150.051,91.5a11.365,11.365,0,0,0,5.267-2.5c2.154-2,1.069-2.511,1.069-2.511L105.8-.136l-52.513,87.4A11.975,11.975,0,0,0,56.6,90.635a5.923,5.923,0,0,0,3.22.867L29.873,132.1a9.967,9.967,0,0,0,5.436,5.943c4.235,1.757,5.007,1.437,5.007,1.437L14.768,181.038s.692,4.188,2.579,5.876a21.037,21.037,0,0,0,4.93,2.969Z" transform="translate(0 0.136)" fill="#ecf0f6"/>
      </g>
    </g>
    <g id="Group_86" data-name="Group 86" transform="translate(0.037 0.557)">
      <g id="Group_70" data-name="Group 70" transform="translate(0 0)">
        <g id="Group_42-2" data-name="Group 42" transform="translate(0 0)">
          <path id="Path_20" data-name="Path 20" d="M54.367,128.49m91.094-69.275c0,3.118-2.863,6.435-8.564,9.191l23.357,34.038c0,13.787-52.059,26.045-105.886,26.045S-51.517,116.232-51.517,102.445L-29.241,68.16c-5.066-2.616-7.481-6.018-7.481-8.945m14.961-49.163c0,2.84,3.889,5.564,10.8,7.985L-36.723,59.215M130.5,10.052c0,2.579-3.71,5.613-9.469,7.868-.362.14.378-.14,0,0l24.432,41.3M1.893-34.9c0,1.661,2.138,3.249,6.228,4.585L-21.762,10.052M105.158-34.9c0,1.79-2.2,3.591-6.653,5L130.5,10.052M105.158-34.9,54.367-121.754,28.131-78.327,1.893-34.9" transform="translate(51.517 121.754)" fill="none" stroke="#3cc07b" stroke-linecap="round" stroke-linejoin="round" stroke-miterlimit="10" stroke-width="2"/>
        </g>
      </g>
      <line id="Line_2" data-name="Line 2" y2="24.664" transform="translate(102.767 249.903)" fill="none" stroke="#3cc07b" stroke-linecap="round" stroke-width="2"/>
      <g id="Group_83" data-name="Group 83" transform="translate(0 0)">
        <g id="Group_42-3" data-name="Group 42" transform="translate(0 0)">
          <path id="Path_20-2" data-name="Path 20" d="M54.367,128.49m91.094-69.275c0,3.118-2.863,6.435-8.564,9.191l23.357,34.038c0,13.787-52.059,26.045-105.886,26.045S-51.517,116.232-51.517,102.445L-29.241,68.16c-5.066-2.616-7.481-6.018-7.481-8.945m14.961-49.163c0,2.84,3.889,5.564,10.8,7.985L-36.723,59.215M130.5,10.052c0,2.579-3.71,5.613-9.469,7.868-.362.14.378-.14,0,0l24.432,41.3M1.893-34.9c0,1.661,2.138,3.249,6.228,4.585L-21.762,10.052M105.158-34.9c0,1.79-2.2,3.591-6.653,5L130.5,10.052M105.158-34.9,54.367-121.754,28.131-78.327,1.893-34.9" transform="translate(51.517 121.754)" fill="none" stroke="#3cc07b" stroke-linecap="round" stroke-linejoin="round" stroke-miterlimit="10" stroke-width="2"/>
        </g>
      </g>
    </g>
  </g>
</svg>
