<?xml version="1.0" encoding="iso-8859-1"?>
<!-- Generator: Adobe Illustrator 17.1.0, SVG Export Plug-In . SVG Version: 6.00 Build 0)  -->
<!DOCTYPE svg PUBLIC "-//W3C//DTD SVG 1.1//EN" "http://www.w3.org/Graphics/SVG/1.1/DTD/svg11.dtd">
<svg version="1.1" id="Layer_1" xmlns="http://www.w3.org/2000/svg" xmlns:xlink="http://www.w3.org/1999/xlink" x="0px" y="0px"
	 viewBox="148.513 92.275 123.242 41.019" style="enable-background:new 148.513 92.275 123.242 41.019;" xml:space="preserve">
<g>
	<path style="fill:#4AC185;" d="M149.181,133.292c-0.017,0-0.034-0.001-0.051-0.002c-0.367-0.027-0.642-0.347-0.615-0.715
		l1.01-13.448c-0.013-0.05-0.019-0.103-0.019-0.157c0-0.089,0.017-0.174,0.049-0.252l0.944-12.575
		c0.001-0.017,0.002-0.033,0.003-0.049l0.991-13.203c0.026-0.348,0.316-0.617,0.665-0.617H268.11c0.349,0,0.639,0.269,0.665,0.617
		l0.989,13.185c0.004,0.028,0.006,0.055,0.007,0.084l0.942,12.555c0.033,0.079,0.051,0.165,0.051,0.255
		c0,0.055-0.007,0.109-0.019,0.161l1.009,13.445c0.027,0.367-0.247,0.687-0.615,0.715c-0.364,0.033-0.687-0.247-0.715-0.615
		l-0.979-13.038H250.79l0.649,12.953c0.018,0.367-0.265,0.681-0.633,0.699c-0.374,0.018-0.681-0.265-0.699-0.633l-0.652-13.02
		h-18.659l0.325,12.97c0.009,0.368-0.282,0.674-0.65,0.683c-0.006,0-0.012,0-0.017,0c-0.361,0-0.657-0.287-0.667-0.65l-0.325-13.003
		h-18.33l0.215,12.977c0.006,0.368-0.288,0.671-0.655,0.678c-0.004,0-0.008,0-0.011,0c-0.363,0-0.661-0.291-0.667-0.655
		l-0.218-13.148c-0.115,0.093-0.261,0.149-0.42,0.149h-18.567l-0.325,13.003c-0.009,0.362-0.306,0.65-0.667,0.65
		c-0.005,0-0.011,0-0.017,0c-0.368-0.009-0.659-0.315-0.65-0.683l0.325-12.97h-18.659l-0.652,13.02
		c-0.019,0.367-0.33,0.653-0.699,0.633c-0.368-0.018-0.651-0.331-0.633-0.699l0.649-12.953h-18.656l-0.979,13.038
		C149.819,133.026,149.526,133.292,149.181,133.292z M190.842,118.305h18.533c0.151,0,0.291,0.051,0.403,0.135l-0.193-11.603
		h-18.457L190.842,118.305z M250.722,118.305h18.623l-0.861-11.468h-18.335L250.722,118.305z M230.761,118.305h18.626l-0.574-11.468
		h-18.339L230.761,118.305z M211.109,118.305h18.319l-0.287-11.468h-18.222L211.109,118.305z M170.881,118.305h18.626l0.287-11.468
		h-18.339L170.881,118.305z M150.923,118.305h18.624l0.573-11.468h-18.336L150.923,118.305z M250.081,105.503h18.302l-0.893-11.895
		h-18.005L250.081,105.503z M230.441,105.503h18.305l-0.595-11.895h-18.008L230.441,105.503z M210.897,105.503h18.21l-0.297-11.895
		h-18.111L210.897,105.503z M191.162,105.503h18.401l-0.197-11.895H191.46L191.162,105.503z M171.523,105.503h18.305l0.297-11.895
		h-18.008L171.523,105.503z M151.884,105.503h18.303l0.596-11.895h-18.006L151.884,105.503z"/>
</g>
</svg>
